<svg height="1134" width="720" xmlns="http://www.w3.org/2000/svg">
<rect height="1134" fill="#555" width="720"></rect>
<text fill="#7f7" font-family="Courier New" font-size="12" xml:space="preserve">
<tspan x="10" y="26">45 megabytes installed</tspan>
<tspan x="10" y="42"></tspan>
<tspan x="10" y="58">node_modules</tspan>
<tspan x="10" y="74">└─┬ elasticsearch-reindex@1.1.15 </tspan>
<tspan x="10" y="90">  ├─┬ agentkeepalive@3.1.0 </tspan>
<tspan x="10" y="106">  │ └─┬ humanize-ms@1.2.0 </tspan>
<tspan x="10" y="122">  │   └── ms@0.7.3 </tspan>
<tspan x="10" y="138">  ├── async@1.5.2 </tspan>
<tspan x="10" y="154">  ├── bluebird@3.5.0 </tspan>
<tspan x="10" y="170">  ├─┬ bunyan@1.8.10 </tspan>
<tspan x="10" y="186">  │ ├─┬ dtrace-provider@0.8.1 </tspan>
<tspan x="10" y="202">  │ │ └── nan@2.6.2 </tspan>
<tspan x="10" y="218">  │ ├─┬ mv@2.1.1 </tspan>
<tspan x="10" y="234">  │ │ ├─┬ mkdirp@0.5.1 </tspan>
<tspan x="10" y="250">  │ │ │ └── minimist@0.0.8 </tspan>
<tspan x="10" y="266">  │ │ ├── ncp@2.0.0 </tspan>
<tspan x="10" y="282">  │ │ └─┬ rimraf@2.4.5 </tspan>
<tspan x="10" y="298">  │ │   └─┬ glob@6.0.4 </tspan>
<tspan x="10" y="314">  │ │     ├─┬ inflight@1.0.6 </tspan>
<tspan x="10" y="330">  │ │     │ └── wrappy@1.0.2 </tspan>
<tspan x="10" y="346">  │ │     ├── inherits@2.0.3 </tspan>
<tspan x="10" y="362">  │ │     ├─┬ minimatch@3.0.3 </tspan>
<tspan x="10" y="378">  │ │     │ └─┬ brace-expansion@1.1.7 </tspan>
<tspan x="10" y="394">  │ │     │   ├── balanced-match@0.4.2 </tspan>
<tspan x="10" y="410">  │ │     │   └── concat-map@0.0.1 </tspan>
<tspan x="10" y="426">  │ │     ├── once@1.4.0 </tspan>
<tspan x="10" y="442">  │ │     └── path-is-absolute@1.0.1 </tspan>
<tspan x="10" y="458">  │ └── safe-json-stringify@1.0.4 </tspan>
<tspan x="10" y="474">  ├─┬ commander@2.9.0 </tspan>
<tspan x="10" y="490">  │ └── graceful-readlink@1.0.1 </tspan>
<tspan x="10" y="506">  ├─┬ elasticsearch@11.0.1 </tspan>
<tspan x="10" y="522">  │ ├─┬ chalk@1.1.3 </tspan>
<tspan x="10" y="538">  │ │ ├── ansi-styles@2.2.1 </tspan>
<tspan x="10" y="554">  │ │ ├── escape-string-regexp@1.0.5 </tspan>
<tspan x="10" y="570">  │ │ ├─┬ has-ansi@2.0.0 </tspan>
<tspan x="10" y="586">  │ │ │ └── ansi-regex@2.1.1 </tspan>
<tspan x="10" y="602">  │ │ ├── strip-ansi@3.0.1 </tspan>
<tspan x="10" y="618">  │ │ └── supports-color@2.0.0 </tspan>
<tspan x="10" y="634">  │ ├── forever-agent@0.6.1 </tspan>
<tspan x="10" y="650">  │ ├── lodash@3.10.1 </tspan>
<tspan x="10" y="666">  │ ├── lodash-compat@3.10.2 </tspan>
<tspan x="10" y="682">  │ └─┬ promise@7.1.1 </tspan>
<tspan x="10" y="698">  │   └── asap@2.0.5 </tspan>
<tspan x="10" y="714">  ├─┬ event-emitter@0.3.5 </tspan>
<tspan x="10" y="730">  │ ├── d@1.0.0 </tspan>
<tspan x="10" y="746">  │ └─┬ es5-ext@0.10.15 </tspan>
<tspan x="10" y="762">  │   ├── es6-iterator@2.0.1 </tspan>
<tspan x="10" y="778">  │   └── es6-symbol@3.1.1 </tspan>
<tspan x="10" y="794">  ├─┬ http-aws-es@1.1.3 </tspan>
<tspan x="10" y="810">  │ └─┬ aws-sdk@2.45.0 </tspan>
<tspan x="10" y="826">  │   ├─┬ buffer@4.9.1 </tspan>
<tspan x="10" y="842">  │   │ ├── base64-js@1.2.0 </tspan>
<tspan x="10" y="858">  │   │ ├── ieee754@1.1.8 </tspan>
<tspan x="10" y="874">  │   │ └── isarray@1.0.0 </tspan>
<tspan x="10" y="890">  │   ├── crypto-browserify@1.0.9 </tspan>
<tspan x="10" y="906">  │   ├── jmespath@0.15.0 </tspan>
<tspan x="10" y="922">  │   ├── querystring@0.2.0 </tspan>
<tspan x="10" y="938">  │   ├── sax@1.2.1 </tspan>
<tspan x="10" y="954">  │   ├─┬ url@0.10.3 </tspan>
<tspan x="10" y="970">  │   │ └── punycode@1.3.2 </tspan>
<tspan x="10" y="986">  │   ├── uuid@3.0.1 </tspan>
<tspan x="10" y="1002">  │   ├── xml2js@0.4.17 </tspan>
<tspan x="10" y="1018">  │   └─┬ xmlbuilder@4.2.1 </tspan>
<tspan x="10" y="1034">  │     └── lodash@4.17.4 </tspan>
<tspan x="10" y="1050">  ├── moment@2.18.1 </tspan>
<tspan x="10" y="1066">  ├─┬ pace@0.0.4 </tspan>
<tspan x="10" y="1082">  │ └── charm@0.1.2 </tspan>
<tspan x="10" y="1098">  ├── progress@1.1.8 </tspan>
<tspan x="10" y="1114">  └── underscore@1.8.3</tspan>
</text>
</svg>
